<svg width="17" height="17" viewBox="0 0 17 17" fill="none" xmlns="http://www.w3.org/2000/svg">
<path d="M2.41485 6.49445L3.52789 4.56544C3.67774 4.30593 3.89458 4.09147 4.15573 3.94451C4.41688 3.79754 4.71273 3.72347 5.01233 3.73004C5.31192 3.73661 5.60424 3.82359 5.85869 3.98187C6.11314 4.14015 6.32037 4.36391 6.4587 4.62974L7.68555 2.50782C7.83913 2.24242 8.06275 2.02436 8.33194 1.87751C8.60113 1.73067 8.90553 1.66068 9.21182 1.67522C9.51812 1.68976 9.81451 1.78826 10.0686 1.95994C10.3227 2.13163 10.5246 2.36988 10.6524 2.64864C10.9435 2.37185 11.3246 2.20916 11.7259 2.19035C12.1272 2.17153 12.5219 2.29785 12.8377 2.54619C13.1535 2.79452 13.3693 3.14827 13.4456 3.54269C13.5219 3.93711 13.4537 4.34582 13.2533 4.69404L13.0418 5.06055C13.3416 5.04682 13.6396 5.11406 13.9044 5.25519C14.1693 5.39633 14.3913 5.60616 14.5471 5.86267C14.7029 6.11918 14.7868 6.4129 14.7899 6.713C14.7931 7.01311 14.7154 7.30853 14.565 7.56826L11.9917 12.0243C11.6304 12.6545 11.1476 13.2067 10.5713 13.6491C9.99506 14.0915 9.3368 14.4152 8.63462 14.6014C8.16499 14.7283 7.68076 14.7932 7.1943 14.7943C6.22441 14.7927 5.27203 14.5359 4.43272 14.0499C3.5934 13.5639 2.89668 12.8657 2.41246 12.0253C1.92824 11.1849 1.67357 10.232 1.67399 9.26213C1.6744 8.29225 1.9299 7.33953 2.41485 6.49959V6.49445ZM2.60775 10.4914C2.85154 11.4001 3.35928 12.2162 4.06677 12.8364C4.77426 13.4566 5.64975 13.8532 6.58258 13.976C7.51541 14.0987 8.46369 13.9422 9.30757 13.5261C10.1515 13.1101 10.853 12.4532 11.3237 11.6385L13.8957 7.18118C14.0151 6.9744 14.0474 6.72868 13.9856 6.49805C13.9238 6.26743 13.7729 6.07081 13.5661 5.95143C13.3594 5.83206 13.1136 5.79971 12.883 5.86151C12.6524 5.92331 12.4558 6.0742 12.3364 6.28097L11.1005 8.42346C11.0484 8.51008 10.9643 8.57276 10.8664 8.59803C10.7685 8.62329 10.6646 8.60912 10.5771 8.55856C10.4895 8.508 10.4253 8.42509 10.3983 8.32768C10.3712 8.23026 10.3835 8.12612 10.4325 8.03766L12.5852 4.30824C12.6443 4.20585 12.6827 4.09283 12.6981 3.97562C12.7136 3.85841 12.7058 3.73931 12.6752 3.62511C12.6134 3.39449 12.4625 3.19786 12.2557 3.07849C12.0489 2.95912 11.8032 2.92677 11.5726 2.98857C11.342 3.05037 11.1453 3.20126 11.026 3.40803L9.02171 6.88025C8.98783 6.93894 8.93909 6.98766 8.88039 7.02153C8.82169 7.05539 8.75511 7.0732 8.68735 7.07315C8.61955 7.07334 8.55294 7.05535 8.49445 7.02107C8.45052 6.99576 8.41201 6.96203 8.38112 6.92183C8.35023 6.88162 8.32757 6.83573 8.31443 6.78676C8.30129 6.73779 8.29794 6.68671 8.30455 6.63644C8.31117 6.58618 8.32763 6.53771 8.35299 6.49381L9.91292 3.79383C10.0323 3.58706 10.0646 3.34133 10.0028 3.11071C9.94103 2.88009 9.79015 2.68346 9.58338 2.56409C9.3766 2.44471 9.13088 2.41237 8.90025 2.47417C8.66963 2.53597 8.47301 2.68685 8.35363 2.89363L6.15456 6.70214C6.66214 7.1846 6.98208 7.8315 7.05743 8.52773C7.13279 9.22395 6.95868 9.92433 6.56608 10.5042C6.5087 10.589 6.41999 10.6475 6.31948 10.6668C6.21897 10.6862 6.11489 10.6648 6.03014 10.6074C5.94538 10.55 5.88689 10.4613 5.86754 10.3608C5.84818 10.2603 5.86955 10.1562 5.92693 10.0715C6.24168 9.60646 6.36542 9.03817 6.27253 8.48439C6.17963 7.93061 5.87722 7.4338 5.42796 7.09694C5.35246 7.04038 5.3003 6.95811 5.28134 6.8657C5.26238 6.77328 5.27794 6.67712 5.32508 6.5954L5.75525 5.85144C5.81436 5.74906 5.85272 5.63604 5.86815 5.51883C5.88358 5.40162 5.87577 5.28251 5.84517 5.16832C5.81457 5.05413 5.76178 4.94708 5.68981 4.85329C5.61784 4.7595 5.5281 4.68081 5.42571 4.6217C5.32333 4.56259 5.21031 4.52423 5.0931 4.5088C4.97588 4.49337 4.85678 4.50118 4.74259 4.53178C4.6284 4.56238 4.52135 4.61517 4.42756 4.68714C4.33377 4.75912 4.25508 4.84885 4.19597 4.95124L3.08293 6.88025C2.76908 7.42068 2.56548 8.01798 2.48392 8.63759C2.40236 9.2572 2.44445 9.88683 2.60775 10.4901V10.4914ZM4.48918 2.07187C4.46238 1.97342 4.39767 1.8896 4.30922 1.83875C4.22077 1.7879 4.11577 1.77415 4.01721 1.80052C3.54252 1.92501 3.0973 2.14259 2.70742 2.44063C2.31754 2.73867 1.99078 3.11122 1.74612 3.53663L1.7249 3.57328C1.69847 3.61719 1.68104 3.66593 1.67365 3.71665C1.66626 3.76738 1.66906 3.81906 1.68187 3.86869C1.69467 3.91832 1.71725 3.9649 1.74826 4.00571C1.77927 4.04652 1.81811 4.08074 1.86249 4.10637C1.90688 4.13201 1.95593 4.14854 2.00678 4.155C2.05762 4.16146 2.10925 4.15773 2.15864 4.14402C2.20803 4.1303 2.25419 4.10689 2.29442 4.07514C2.33466 4.04338 2.36817 4.00393 2.39299 3.95908L2.4142 3.92243C2.6081 3.58496 2.8671 3.28937 3.17616 3.05283C3.48523 2.81628 3.83822 2.64348 4.21462 2.54448C4.26372 2.53155 4.3098 2.50906 4.35019 2.47829C4.39059 2.44753 4.42451 2.40909 4.45002 2.36518C4.47553 2.32127 4.49212 2.27276 4.49884 2.22243C4.50556 2.17209 4.50228 2.12093 4.48918 2.07187ZM11.3603 15.1564C11.4236 15.2366 11.5162 15.2885 11.6177 15.3005C11.7192 15.3126 11.8214 15.2838 11.9017 15.2207C12.6578 14.6237 13.2931 13.8881 13.7735 13.0531C13.8247 12.9644 13.8385 12.859 13.812 12.7602C13.7855 12.6613 13.7207 12.577 13.632 12.5258C13.5434 12.4747 13.438 12.4608 13.3391 12.4874C13.2402 12.5139 13.1559 12.5786 13.1048 12.6673C12.6739 13.4178 12.1033 14.0789 11.424 14.6149C11.3438 14.6783 11.2921 14.771 11.2802 14.8725C11.2682 14.974 11.297 15.0761 11.3603 15.1564Z" fill="#E6B033"/>
</svg>
