<svg width="19" height="14" viewBox="0 0 19 14" fill="none" xmlns="http://www.w3.org/2000/svg">
<path d="M8.98669 0C5.68103 0 2.9873 2.28577 2.9873 5.09948C2.9873 6.46734 3.64124 7.7812 4.78712 8.73511V10.7989C4.78712 11.1289 5.05709 11.3988 5.38706 11.3988H12.5863C12.9163 11.3988 13.1863 11.1289 13.1863 10.7989V8.73511C14.3321 7.7752 14.9861 6.46734 14.9861 5.09948C14.9861 2.28577 12.2924 0 8.98669 0ZM12.2264 7.96718C12.0764 8.08117 11.9864 8.26115 11.9864 8.44714V10.199H10.7865V8.39914H9.58663V10.199H8.38675V8.39914H7.18687V10.199H5.987V8.44714C5.987 8.354 5.96531 8.26214 5.92366 8.17883C5.88201 8.09553 5.82153 8.02307 5.74702 7.96718C4.75712 7.22926 4.18718 6.17937 4.18718 5.09948C4.18718 2.9517 6.34096 1.19988 8.98669 1.19988C11.6324 1.19988 13.7862 2.9517 13.7862 5.09948C13.7862 6.17937 13.2163 7.22326 12.2264 7.96718Z" fill="#E6B033"/>
<path d="M6.5866 3.59961C6.26837 3.59961 5.96318 3.75763 5.73815 4.0389C5.51313 4.32018 5.38672 4.70167 5.38672 5.09946C5.38672 5.49724 5.51313 5.87873 5.73815 6.16001C5.96318 6.44128 6.26837 6.5993 6.5866 6.5993C6.90482 6.5993 7.21002 6.44128 7.43504 6.16001C7.66006 5.87873 7.78647 5.49724 7.78647 5.09946C7.78647 4.70167 7.66006 4.32018 7.43504 4.0389C7.21002 3.75763 6.90482 3.59961 6.5866 3.59961ZM11.3861 3.59961C11.0679 3.59961 10.7627 3.75763 10.5377 4.0389C10.3126 4.32018 10.1862 4.70167 10.1862 5.09946C10.1862 5.49724 10.3126 5.87873 10.5377 6.16001C10.7627 6.44128 11.0679 6.5993 11.3861 6.5993C11.7043 6.5993 12.0095 6.44128 12.2345 6.16001C12.4596 5.87873 12.586 5.49724 12.586 5.09946C12.586 4.70167 12.4596 4.32018 12.2345 4.0389C12.0095 3.75763 11.7043 3.59961 11.3861 3.59961Z" fill="#E6B033"/>
<path d="M17.9782 6.63195L13.9935 9.24591L15.2406 9.96594L13.833 12.404L17.8166 9.79033L16.5702 9.07072L17.9782 6.63195Z" fill="#E6B033"/>
<path d="M-0.00555169 6.63195L3.97913 9.24591L2.73201 9.96594L4.13962 12.404L0.156071 9.79033L1.40247 9.07072L-0.00555169 6.63195Z" fill="#E6B033"/>
</svg>
